<?xml version="1.0" standalone="no"?>
<!DOCTYPE svg PUBLIC "-//W3C//DTD SVG 20010904//EN"
 "http://www.w3.org/TR/2001/REC-SVG-20010904/DTD/svg10.dtd">
<svg version="1.0" xmlns="http://www.w3.org/2000/svg"
 width="500pt" height="500pt" viewBox="0 0 512.000000 512.000000"
 preserveAspectRatio="xMidYMid meet">

<g transform="translate(0.000000,512.000000) scale(0.100000,-0.100000)"
fill="#fff" stroke="none">
<path d="M180 5059 c-43 -9 -105 -73 -118 -123 -14 -48 1 -99 42 -143 29 -32
56 -42 391 -147 l359 -113 63 -254 c51 -203 370 -1458 549 -2159 36 -139 66
-201 107 -216 12 -5 634 -11 1382 -14 l1360 -5 47 -28 c60 -35 100 -100 106
-171 6 -73 -36 -149 -103 -191 l-48 -30 -1276 -5 c-1254 -5 -1277 -5 -1309
-25 -60 -36 -90 -108 -72 -173 11 -42 60 -95 103 -111 19 -8 422 -11 1281 -11
1217 0 1255 1 1330 20 101 26 177 69 251 145 113 114 170 282 148 434 -15 98
-45 175 -93 239 l-39 52 214 962 c182 814 213 968 205 994 -14 41 -68 92 -111
104 -21 6 -688 10 -1846 10 l-1812 0 -15 53 c-8 28 -45 167 -81 307 -37 140
-73 266 -80 280 -31 60 -54 69 -446 192 -435 135 -442 137 -489 127z m2460
-1671 c18 -13 43 -36 54 -51 20 -28 21 -39 21 -382 0 -343 -1 -354 -21 -382
-35 -48 -82 -73 -134 -73 -52 0 -99 25 -134 73 -20 28 -21 39 -21 382 0 343 1
354 21 382 35 48 82 73 134 73 32 0 57 -7 80 -22z m970 0 c18 -13 43 -36 54
-51 20 -28 21 -39 21 -382 0 -343 -1 -354 -21 -382 -35 -48 -82 -73 -134 -73
-52 0 -99 25 -134 73 -20 28 -21 39 -21 380 l0 352 24 33 c52 73 145 95 211
50z"/>
<path d="M2330 994 c-71 -19 -132 -56 -198 -118 -286 -270 -128 -758 264 -816
234 -36 463 113 529 344 13 43 16 85 13 156 -3 91 -7 104 -46 183 -65 130
-181 226 -313 256 -63 15 -185 12 -249 -5z"/>
<path d="M3930 994 c-71 -19 -132 -56 -198 -118 -286 -270 -128 -758 264 -816
234 -36 463 113 529 344 13 43 16 85 13 156 -3 91 -7 104 -46 183 -65 130
-181 226 -313 256 -63 15 -185 12 -249 -5z"/>
</g>
</svg>
