<?xml version="1.0" standalone="no"?>
<!DOCTYPE svg PUBLIC "-//W3C//DTD SVG 20010904//EN"
 "http://www.w3.org/TR/2001/REC-SVG-20010904/DTD/svg10.dtd">
<svg version="1.0" xmlns="http://www.w3.org/2000/svg"
 width="400pt" height="500pt" viewBox="0 0 219.000000 407.000000"
 preserveAspectRatio="xMidYMid meet">

<g transform="translate(0.000000,407.000000) scale(0.100000,-0.100000)"
fill="#fff" stroke="none">
<path d="M850 3716 c-65 -19 -110 -40 -149 -70 -30 -23 -40 -25 -91 -19 -34 3
-72 1 -93 -6 -46 -16 -113 -90 -151 -167 -17 -35 -61 -93 -106 -140 -42 -45
-85 -99 -95 -120 -23 -48 -31 -116 -16 -140 9 -17 10 -16 11 11 1 37 33 118
49 123 16 5 14 -76 -5 -159 -12 -54 -30 -91 -75 -157 -40 -61 -63 -107 -75
-152 -19 -75 -24 -233 -8 -250 8 -8 11 0 12 27 2 52 21 130 45 181 37 81 47
62 22 -43 -8 -33 -15 -95 -15 -137 0 -68 3 -80 26 -107 22 -26 33 -31 71 -31
35 0 70 9 90 24 1 1 -4 20 -12 41 -23 65 -17 190 9 182 18 -5 85 -139 86 -172
2 -30 2 -30 10 -5 4 14 11 37 14 53 14 60 87 13 134 -84 29 -59 29 -60 44 -37
8 13 25 50 38 83 21 54 24 76 23 213 l0 153 26 -6 c16 -3 34 0 46 9 19 14 17
15 -26 26 -58 15 -113 59 -141 113 -23 46 -36 168 -24 231 10 53 39 49 66 -10
40 -91 149 -185 229 -198 52 -8 65 -26 59 -81 -5 -36 -15 -55 -51 -94 -52 -55
-88 -121 -113 -206 -14 -51 -16 -80 -9 -195 5 -74 9 -169 9 -210 1 -73 -1 -78
-45 -150 -26 -41 -61 -106 -79 -145 -70 -154 -180 -461 -180 -505 0 -13 18
-32 53 -54 102 -65 216 -95 392 -105 l110 -6 12 -185 c26 -425 27 -462 9 -522
-9 -31 -16 -79 -16 -107 0 -94 51 -116 260 -109 174 6 220 27 220 102 0 29
-19 42 -87 56 -68 15 -109 42 -133 90 -24 47 -50 170 -50 236 0 55 85 461 100
479 7 8 37 21 68 30 62 18 212 92 212 105 0 4 -29 66 -65 138 -141 285 -155
338 -155 615 0 233 -8 217 87 192 31 -8 67 -15 79 -15 32 0 69 43 131 154 75
136 136 220 175 244 18 11 68 29 110 40 88 23 132 45 161 84 42 56 8 67 -149
49 -96 -11 -162 -51 -233 -141 -97 -124 -184 -210 -211 -210 -43 0 -242 147
-307 227 -17 21 -49 49 -71 63 -54 32 -55 60 -4 110 39 39 91 60 153 60 20 0
50 5 68 11 30 10 31 13 31 64 0 30 4 56 10 60 14 9 4 83 -15 101 -9 10 -13 23
-9 33 18 43 16 50 -25 75 -50 32 -61 52 -61 113 0 57 -33 159 -62 190 -11 12
-43 31 -71 44 -64 27 -209 35 -277 15z"/>
</g>
</svg>
