<?xml version="1.0" standalone="no"?>
<!DOCTYPE svg PUBLIC "-//W3C//DTD SVG 20010904//EN"
 "http://www.w3.org/TR/2001/REC-SVG-20010904/DTD/svg10.dtd">
<svg version="1.0" xmlns="http://www.w3.org/2000/svg"
 width="400pt" height="500pt" viewBox="0 0 159.000000 318.000000"
 preserveAspectRatio="xMidYMid meet">

<g transform="translate(0.000000,318.000000) scale(0.100000,-0.100000)"
fill="#fff" stroke="none">
<path d="M703 3151 c-69 -33 -82 -50 -82 -107 0 -127 12 -177 45 -197 19 -11
18 -62 -2 -107 -14 -31 -30 -43 -127 -90 -84 -41 -116 -63 -129 -85 -17 -30
-83 -340 -94 -444 -4 -31 -11 -62 -17 -69 -8 -10 -7 -16 2 -21 8 -5 9 -15 2
-33 -12 -33 -14 -157 -3 -358 11 -218 21 -242 117 -266 31 -8 48 23 21 38 -13
7 -15 13 -6 24 15 17 4 125 -14 149 -14 19 -3 115 28 250 9 38 16 87 16 108 0
21 7 49 16 63 14 20 15 30 5 50 -11 26 0 64 19 64 18 0 32 -70 25 -133 -6 -54
-4 -66 13 -87 14 -18 17 -30 11 -42 -5 -9 -9 -32 -8 -50 1 -18 -11 -75 -26
-126 -23 -82 -25 -99 -16 -143 6 -27 11 -68 11 -89 0 -34 90 -509 104 -550 3
-8 12 -80 21 -160 22 -203 63 -433 85 -486 l20 -45 -26 -80 c-24 -77 -25 -82
-8 -100 20 -23 71 -33 114 -24 38 8 51 37 53 117 2 55 2 56 28 51 36 -7 73 39
99 125 17 54 20 81 14 147 -6 77 -5 81 20 104 20 19 26 34 26 65 0 23 11 81
25 131 24 85 25 106 31 454 6 360 6 366 30 412 13 26 29 51 35 55 6 3 22 32
36 63 13 31 35 77 48 102 14 28 23 63 23 91 0 25 6 80 12 122 11 70 10 81 -14
158 -14 46 -36 130 -50 188 -31 131 -57 194 -91 216 -15 10 -68 34 -118 54
-89 36 -104 48 -133 109 -4 7 1 38 10 69 45 141 38 247 -21 304 -46 45 -100
48 -180 9z m426 -1018 c19 -23 20 -28 6 -43 -17 -19 -20 -46 -5 -55 6 -4 8
-29 5 -58 -2 -29 -7 -82 -11 -119 -3 -38 -9 -68 -14 -68 -4 0 -13 13 -20 29
-10 25 -9 39 5 81 11 34 15 64 10 88 -13 72 -17 172 -7 172 6 0 20 -12 31 -27z
m-264 -986 c9 -41 18 -96 20 -123 4 -54 12 -113 16 -129 1 -5 -1 -33 -5 -61
-4 -31 -3 -67 3 -89 7 -26 7 -44 0 -57 -5 -10 -13 -57 -16 -104 -5 -69 -9 -84
-22 -82 -12 3 -15 19 -12 98 1 52 -3 117 -9 143 -8 39 -17 378 -11 460 3 40
21 12 36 -56z"/>
</g>
</svg>
