<?xml version="1.0" standalone="no"?>
<!DOCTYPE svg PUBLIC "-//W3C//DTD SVG 20010904//EN"
 "http://www.w3.org/TR/2001/REC-SVG-20010904/DTD/svg10.dtd">
<svg version="1.0" xmlns="http://www.w3.org/2000/svg"
 width="400pt" height="500pt" viewBox="0 0 190.000000 266.000000"
 preserveAspectRatio="xMidYMid meet">

<g transform="translate(0.000000,266.000000) scale(0.100000,-0.100000)"
fill="#fff" stroke="none">
<path d="M834 2583 c-59 -64 -70 -94 -56 -149 7 -25 12 -53 12 -63 0 -10 14
-48 30 -84 17 -37 30 -73 30 -81 0 -14 -32 -30 -82 -42 -42 -9 -57 -34 -102
-166 -23 -68 -55 -150 -70 -183 -15 -32 -36 -102 -47 -155 -27 -128 -37 -160
-64 -195 -27 -36 -38 -115 -19 -133 21 -19 26 -14 19 19 -5 24 -2 36 16 55 28
29 53 32 44 5 -3 -11 -1 -22 4 -25 10 -6 18 44 19 114 0 19 20 77 45 130 24
52 47 106 51 120 15 49 91 230 98 230 11 0 70 -173 76 -223 4 -46 3 -49 -45
-95 -63 -60 -106 -124 -128 -187 -15 -44 -34 -223 -35 -327 l0 -38 69 0 69 0
21 -85 c33 -131 29 -167 -23 -245 -34 -49 -52 -90 -72 -165 -40 -151 -51 -175
-86 -182 -19 -4 -34 -15 -41 -32 -6 -14 -29 -46 -51 -71 -30 -33 -32 -37 -9
-16 18 16 35 27 38 24 9 -8 -14 -60 -42 -97 -24 -32 -25 -36 -12 -60 17 -30
63 -55 85 -47 8 3 14 18 14 35 0 35 18 78 42 103 9 9 27 39 38 65 23 51 121
206 126 200 4 -3 46 -149 57 -196 4 -18 -1 -33 -21 -55 -26 -30 -27 -35 -23
-121 3 -50 6 -76 8 -60 2 17 6 41 10 55 6 25 6 25 13 -5 4 -16 8 -51 9 -77 1
-54 14 -62 87 -56 31 2 40 7 42 25 2 12 -4 32 -12 45 -10 15 -15 44 -14 78 0
30 -7 102 -15 160 -10 63 -17 169 -17 265 0 157 1 161 30 220 16 33 45 108 65
166 l37 106 70 1 c38 0 72 3 76 6 9 10 -49 445 -69 510 -15 49 -16 64 -6 89
l12 30 76 -109 c42 -60 82 -120 89 -134 25 -49 91 -130 102 -124 5 4 14 0 19
-7 7 -11 9 -11 9 -1 0 7 5 10 10 7 15 -9 12 42 -4 73 -8 15 -31 36 -51 47 -39
20 -68 68 -111 183 -13 34 -38 91 -55 124 -27 54 -30 66 -21 95 7 21 7 45 1
65 -6 21 -5 34 2 39 7 4 4 9 -7 13 -9 3 -14 9 -11 13 4 3 2 12 -4 20 -9 10 -8
13 0 13 7 0 9 5 5 12 -4 7 -3 8 5 4 6 -4 9 -11 6 -16 -3 -5 0 -12 6 -16 7 -4
9 -3 5 4 -3 5 -1 12 5 14 7 2 -2 19 -21 41 -22 25 -43 70 -66 142 -31 97 -47
173 -24 120 l9 -20 0 20 c1 17 3 17 11 5 5 -8 10 -10 10 -5 0 6 -19 40 -42 76
-24 35 -52 85 -62 109 -27 64 -68 100 -113 100 -30 0 -43 -7 -79 -47z m255
-208 c0 -5 -6 1 -14 15 -8 14 -14 30 -14 35 0 6 6 -1 14 -15 8 -14 14 -29 14
-35z m316 -965 c11 -17 -5 -32 -21 -19 -8 6 -14 15 -14 20 0 12 27 11 35 -1z"/>
<path d="M1111 2304 c0 -11 3 -14 6 -6 3 7 2 16 -1 19 -3 4 -6 -2 -5 -13z"/>
</g>
</svg>
